Jump_normalized_Motion_pl01
version=1
nRows=12
nColumns=43
inDegrees=yes
endheader
time		pelvis_tilt		pelvis_list		pelvis_rotation		pelvis_tx		pelvis_ty		pelvis_tz		hip_flexion_r		hip_adduction_r		hip_rotation_r		knee_angle_r		ankle_angle_r		subtalar_angle_r		mtp_angle_r		hip_flexion_l		hip_adduction_l		hip_rotation_l		knee_angle_l		ankle_angle_l		subtalar_angle_l		mtp_angle_l		lumbar_extension		lumbar_bending		lumbar_rotation		neck_flexion		neck_lateral_bending		neck_rotation		arm_flex_r		arm_add_r		arm_rot_r		elbow_flex_r		pro_sup_r		wrist_flex_r		wrist_dev_r		hand_finger_flex_r		arm_flex_l		arm_add_l		arm_rot_l		elbow_flex_l		pro_sup_l		wrist_flex_l		wrist_dev_l		hand_finger_flex_l		
3.602500		-1.791864		-34.606791		84.741093		0.013388		1.635139		1.718474		110.907333		0.076920		3.393995		-122.655252		10.212159		-0.385427		36.845471		107.882304		-10.126693		3.958795		-127.038498		29.822269		-3.149098		5.910291		-47.325299		-4.983520		1.791595		49.750057		5.096376		-1.027023		79.904561		-23.291956		21.029193		64.324403		98.123737		-18.836544		-10.938788		12.334973		82.657367		-20.239139		18.924761		56.686636		105.096428		-13.488228		-5.757589		16.611598		
3.605404		-1.841470		-34.778970		84.692682		0.013332		1.635008		1.717704		110.997151		0.042955		3.405963		-122.676696		10.216478		-0.407428		36.866375		107.945912		-10.136168		3.918633		-127.073687		29.817133		-3.109977		5.905844		-47.138518		-5.028319		1.759927		49.902381		5.132045		-1.003903		81.404136		-22.776495		21.474925		63.591521		97.768668		-18.571877		-10.707384		12.058003		84.148703		-19.834036		19.414805		56.084346		105.046246		-13.313012		-5.724297		16.364056		
3.608308		-1.898435		-34.707381		84.707173		0.013240		1.635169		1.716846		110.831219		-0.041289		3.474616		-122.730729		10.158750		-0.458335		36.907345		107.773140		-10.127127		3.857724		-127.129508		29.806772		-3.052999		5.899797		-47.206204		-5.052144		1.619465		49.830155		5.209728		-0.936185		83.038306		-22.232256		22.081482		62.717005		97.042959		-18.162688		-10.583416		11.494067		85.812683		-19.559826		20.221675		55.339454		104.760847		-13.063774		-5.912362		15.896263		
3.611212		-1.961033		-34.503627		84.716687		0.013252		1.635503		1.715858		110.535105		-0.119420		3.547800		-122.806193		10.169718		-0.536868		36.968073		107.434987		-10.130369		3.759447		-127.184061		29.817937		-2.995442		5.893541		-47.417695		-5.101872		1.450156		49.683476		5.291840		-0.829144		84.697646		-21.675110		22.723511		61.804418		96.008585		-17.681970		-10.605451		10.642442		87.517057		-19.371495		21.156012		54.584444		104.214885		-12.813681		-6.303567		15.209852		
3.614116		-2.014578		-34.837668		84.588623		0.013329		1.635125		1.714891		110.794580		-0.094059		3.504309		-122.826229		10.317215		-0.471829		36.984669		107.659155		-10.270228		3.737702		-127.231375		29.874042		-2.980396		5.897050		-47.039717		-5.192973		1.498427		50.131321		5.285379		-0.829409		85.942759		-21.025725		22.808023		61.179609		95.798706		-17.578213		-10.458452		10.374993		88.718061		-18.851931		21.303289		54.177674		104.042975		-12.777885		-6.223874		15.000195		
3.617020		-2.073252		-34.709948		84.666021		0.013069		1.635372		1.713981		110.573774		-0.277748		3.579984		-122.893219		10.229964		-0.343985		37.047184		107.388431		-10.154072		3.657119		-127.262425		29.893235		-2.863295		5.896640		-47.168833		-5.151188		1.273054		49.987430		5.364881		-0.787247		87.651492		-20.452234		23.523315		60.185157		95.213884		-17.089541		-10.550023		9.496595		90.427284		-18.719523		22.308920		53.428998		103.376108		-12.502571		-6.407790		14.363809		
3.619924		-2.125721		-34.832231		84.626836		0.013181		1.634908		1.712720		110.628166		-0.355039		3.576925		-123.011516		10.351830		-0.338627		37.063720		107.456207		-10.196323		3.636791		-127.443724		29.942639		-2.854078		5.900497		-47.019141		-5.205187		1.269707		49.960489		5.376054		-0.768783		88.716356		-20.031914		23.595400		60.071662		95.062485		-16.999197		-10.609036		9.243239		91.467514		-18.386128		22.461180		53.477747		103.182590		-12.477453		-6.501561		14.173051		
3.622828		-2.164510		-35.274970		84.517806		0.013386		1.635000		1.711709		110.940578		-0.317207		3.504683		-122.932856		10.635172		-0.259156		37.078500		107.625127		-10.325812		3.585397		-127.291391		30.020233		-2.839873		5.904078		-46.545044		-5.291349		1.289639		50.685829		5.339008		-0.763231		90.171880		-19.381537		23.960001		59.102675		95.003824		-16.885478		-10.342766		8.987999		92.818804		-17.810076		22.685630		52.758487		103.036749		-12.441934		-6.278938		13.973456		
3.625732		-2.211113		-35.450722		84.533228		0.013196		1.634923		1.710687		111.015650		-0.458539		3.522756		-122.962192		10.649459		-0.085650		37.098470		107.658985		-10.273775		3.557889		-127.317244		30.094900		-2.811250		5.906780		-46.351015		-5.266198		1.199669		51.036611		5.325527		-0.773238		91.711800		-18.942619		24.648797		58.393498		94.995606		-16.734888		-10.223248		8.657771		94.236068		-17.406657		23.119281		52.168850		102.844819		-12.354136		-6.159056		13.741843		
3.628636		-2.245228		-35.569878		84.561064		0.013098		1.634707		1.709438		111.035363		-0.602413		3.546886		-123.046020		10.726029		0.002136		37.113752		107.639650		-10.233154		3.528920		-127.388347		30.152263		-2.801057		5.907957		-46.209159		-5.250816		1.151155		51.154142		5.308221		-0.769521		93.034195		-18.615314		25.152118		58.068580		94.997423		-16.667066		-10.215088		8.388026		95.440072		-17.064951		23.414609		51.935768		102.679646		-12.311740		-6.148576		13.561953		
3.631540		-2.241086		-35.377234		84.767693		0.012538		1.635295		1.708194		110.672985		-0.916070		3.650408		-123.098581		10.698066		0.162005		37.155576		107.233677		-9.955663		3.439351		-127.387756		30.214463		-2.818351		5.894244		-46.486786		-5.071474		0.987954		51.210980		5.196370		-0.730785		94.922922		-18.514322		26.600688		57.396873		94.980298		-16.709131		-10.364799		7.586005		97.091789		-16.824756		24.281464		51.310431		102.135836		-12.243593		-6.283479		13.113207		
3.634444		-2.232844		-35.463606		84.828824		0.012475		1.635811		1.706929		110.571114		-1.025269		3.653762		-123.075811		10.865630		0.254226		37.191308		107.058074		-9.910418		3.362870		-127.303161		30.285659		-2.858552		5.881446		-46.451042		-5.017125		0.905995		51.579125		5.102185		-0.695905		96.598935		-18.164817		27.615724		56.658685		94.895361		-16.787448		-10.403573		6.894606		98.605846		-16.469703		24.839449		50.644425		101.642152		-12.256511		-6.329431		12.709926		
